<svg width="84" height="84" viewBox="0 0 84 84" fill="none" xmlns="http://www.w3.org/2000/svg">
<circle cx="48" cy="48" r="36" fill="#00A9ED"/>
<path d="M62.5 10.625C71.3161 17.3879 77 28.0302 77 40C77 60.4345 60.4345 77 40 77C19.5655 77 3 60.4345 3 40C3 19.5655 19.5655 3 40 3C41.9547 3 43.8741 3.15158 45.7469 3.44363" stroke="black" stroke-width="5" stroke-linecap="round" stroke-linejoin="round"/>
<path fill-rule="evenodd" clip-rule="evenodd" d="M24 20C24 18.8954 23.1046 18 22 18C20.8954 18 20 18.8954 20 20V35.2066C20 35.207 20 35.2075 20 35.2079V36.1078C20 36.3503 20.0432 36.5827 20.1222 36.7978C20.2564 37.7313 20.534 38.9472 21.1014 40.2823C22.2534 42.9928 24.5556 46.0812 29 48.2818V73C29 74.1046 29.8954 75 31 75C32.1046 75 33 74.1046 33 73V48.344C37.4624 46.3312 39.7681 43.2186 40.9146 40.4535C41.5133 39.0096 41.7867 37.6868 41.9101 36.7025C41.9685 36.5146 42 36.3149 42 36.1078V35.6418C42.0034 35.5594 42.0057 35.483 42.0072 35.4129C42.0102 35.264 42.0094 35.1432 42.0075 35.0538C42.0065 35.0091 42.0053 34.9722 42.0041 34.9435L42.0025 34.9067L42.0018 34.893L42.0015 34.8874L42.0013 34.8849C42.0013 34.8848 42.0013 34.8847 42 34.8846V34.8826L42.0012 34.8826C42.0008 34.8763 42.0004 34.8701 42 34.8638V20C42 18.8954 41.1046 18 40 18C38.8954 18 38 18.8954 38 20V33H33V20C33 18.8954 32.1046 18 31 18C29.8954 18 29 18.8954 29 20V33H24V20ZM24.5461 38.1078H31H37.5182C37.4338 38.3709 37.335 38.6432 37.2196 38.9215C36.4011 40.8956 34.7097 43.275 31.0512 44.8309C27.3183 43.0639 25.6024 40.6463 24.7827 38.7177C24.6943 38.5097 24.6158 38.306 24.5461 38.1078Z" fill="black"/>
<path d="M49 74V56.5M49 56.5V20.5C51.8333 24.1667 57.5 33.5 57.5 41.5C57.5 49.5 51.8333 54.8333 49 56.5Z" stroke="black" stroke-width="4" stroke-linecap="round" stroke-linejoin="round"/>
</svg>
